<?xml version="1.0" standalone="no"?>
<!DOCTYPE svg PUBLIC "-//W3C//DTD SVG 20010904//EN"
 "http://www.w3.org/TR/2001/REC-SVG-20010904/DTD/svg10.dtd">
<svg version="1.0" xmlns="http://www.w3.org/2000/svg"
 width="1280.000000pt" height="1280.000000pt" viewBox="0 0 1280.000000 1280.000000"
 preserveAspectRatio="xMidYMid meet">
<metadata>
Created by potrace 1.15, written by Peter Selinger 2001-2017
</metadata>
<g transform="translate(0.000000,1280.000000) scale(0.100000,-0.100000)"
fill="#000000" stroke="none">
<path d="M5011 11479 c-315 -24 -658 -114 -954 -251 -480 -222 -795 -513
-1006 -927 -228 -450 -331 -958 -318 -1573 5 -263 21 -429 63 -658 44 -244 66
-316 192 -630 116 -292 145 -377 181 -540 111 -504 156 -982 149 -1560 -6
-422 -4 -414 -218 -970 -187 -484 -232 -652 -233 -860 -1 -205 49 -326 198
-476 142 -145 309 -244 740 -439 595 -270 1074 -405 1740 -490 259 -33 826
-61 1025 -51 238 13 465 50 688 112 193 54 304 102 423 180 119 78 153 159
169 393 6 80 24 281 41 446 71 710 112 858 334 1230 241 403 511 803 1080
1600 418 586 661 935 1003 1440 411 607 521 896 539 1415 16 475 -91 908 -291
1173 -137 182 -338 321 -580 402 -314 105 -704 108 -1116 9 -58 -14 -131 -31
-163 -39 l-58 -13 -29 65 c-101 222 -270 343 -560 399 -67 13 -187 18 -555 24
-499 8 -545 12 -705 64 -120 38 -238 89 -500 218 -135 66 -281 136 -325 155
-305 134 -592 180 -954 152z m499 -164 c182 -28 324 -72 565 -172 282 -117
390 -172 455 -230 66 -60 79 -83 50 -90 -43 -11 -181 -83 -252 -131 -355 -240
-672 -740 -819 -1290 -64 -238 -93 -510 -94 -862 0 -209 18 -279 94 -362 27
-29 52 -50 56 -46 4 3 2 48 -4 98 -15 118 -15 522 -1 670 66 697 303 1260 661
1566 208 178 431 273 784 335 173 30 486 37 658 15 587 -76 889 -323 992 -808
60 -280 34 -727 -56 -985 -67 -194 -166 -362 -416 -714 -89 -124 -186 -264
-215 -310 -69 -106 -152 -258 -145 -265 3 -3 36 11 75 30 75 38 152 98 246
192 246 247 520 752 622 1149 29 109 29 113 24 335 -9 493 -8 558 19 630 59
161 165 245 388 304 269 72 560 58 765 -37 254 -116 459 -369 577 -711 89
-258 140 -664 111 -890 -31 -250 -167 -649 -324 -951 -70 -136 -421 -706 -679
-1106 -216 -335 -496 -718 -662 -909 -32 -36 -100 -121 -153 -190 -284 -370
-446 -530 -584 -576 -133 -44 -272 23 -299 146 -11 49 11 135 53 209 52 92
253 408 445 701 206 316 326 510 320 517 -11 11 -98 -56 -177 -136 -97 -98
-151 -176 -310 -451 -62 -107 -140 -235 -174 -285 -112 -166 -267 -308 -381
-351 -77 -29 -217 -25 -320 10 -152 52 -291 151 -349 251 -105 179 -56 492
140 883 40 80 72 148 70 149 -9 10 -126 -133 -158 -193 -20 -38 -66 -157 -103
-264 -80 -233 -121 -316 -196 -391 -99 -99 -222 -116 -449 -64 -63 14 -194 43
-290 65 -244 54 -327 87 -394 156 -62 63 -69 99 -71 369 -3 256 -15 412 -45
590 -21 119 -51 258 -55 253 -2 -2 2 -88 7 -193 18 -332 -15 -702 -72 -833
-42 -95 -87 -134 -201 -173 -90 -30 -321 -38 -439 -15 -154 32 -259 84 -305
154 -25 38 -27 55 -60 428 -19 214 -35 400 -35 414 -1 20 -3 22 -10 10 -20
-35 -40 -197 -50 -395 -5 -115 -17 -241 -25 -278 -18 -87 -58 -159 -115 -209
-136 -121 -286 -149 -355 -67 -68 81 -85 189 -90 549 -3 305 -12 393 -65 640
-34 163 -136 560 -146 569 -3 3 -4 -7 0 -24 3 -16 17 -149 30 -295 62 -667 82
-1020 65 -1183 -33 -329 -125 -433 -201 -227 -44 120 -77 276 -108 516 -51
393 -68 463 -225 915 -161 465 -203 635 -241 980 -20 185 -15 597 10 774 52
367 149 694 292 980 121 241 264 426 450 583 360 302 820 489 1334 542 120 12
436 4 560 -15z m-910 -5440 c902 -21 1642 -155 2310 -418 180 -71 907 -434
1015 -507 96 -64 168 -139 201 -207 46 -94 27 -177 -90 -383 -81 -143 -102
-195 -142 -339 -84 -308 -144 -776 -144 -1132 0 -82 -2 -149 -4 -149 -2 0 -71
33 -153 74 -805 399 -1766 660 -2735 742 -234 20 -769 23 -973 5 -320 -27
-598 -72 -847 -136 -27 -7 -28 -6 -28 37 0 139 67 391 205 768 190 522 204
586 215 980 9 321 17 377 66 457 34 54 125 121 210 152 128 48 334 73 549 65
61 -2 216 -6 345 -9z m205 -2495 c983 -57 1757 -246 2468 -601 298 -149 400
-240 355 -318 -40 -68 -370 -189 -653 -241 -191 -34 -330 -43 -601 -37 -264 6
-377 17 -627 63 -302 54 -530 117 -1002 276 -480 161 -631 230 -752 342 -200
185 -123 423 156 491 144 34 356 42 656 25z"/>
<path d="M5040 10731 c-81 -26 -129 -53 -213 -120 -220 -174 -416 -517 -482
-840 -24 -121 -18 -286 15 -360 l24 -54 21 129 c95 561 413 1040 794 1194 42
17 85 35 96 39 17 7 14 10 -20 20 -59 16 -172 13 -235 -8z"/>
<path d="M9570 9787 c0 -3 22 -62 50 -132 163 -416 171 -656 34 -1050 -31 -88
-80 -230 -109 -315 -30 -85 -51 -157 -48 -160 8 -8 81 78 131 153 88 137 159
322 199 522 14 70 18 136 17 295 -1 187 -3 213 -26 301 -30 110 -73 201 -131
277 -35 47 -117 122 -117 109z"/>
</g>
</svg>
